<?xml version="1.0"?>
<svg xmlns="http://www.w3.org/2000/svg" xmlns:xlink="http://www.w3.org/1999/xlink" xmlns:svgjs="http://svgjs.com/svgjs" version="1.1" width="512" height="512" x="0" y="0" viewBox="0 0 512 512" style="enable-background:new 0 0 512 512" xml:space="preserve" class=""><g><g xmlns="http://www.w3.org/2000/svg"><g><path d="m210.87 346.26-165.75 165.74-45.12-47.5 164.59-164.6z" fill="#f2994a" data-original="#000000" style="" class=""/></g><path d="m509.23 107.83-106.6 106.47c-24.14 24.15-60.65 28.36-89.12 12.64l-29.47-29.52c-15.67-28.44-11.44-64.91 12.68-89.03l108.21-108.39 20.92 21.51-72.36 72.37 21.87 21.87 71.89-71.9 20.92 21.51-71.6 71.6 20.56 20.56 71.24-71.25z" fill="#f2994a" data-original="#000000" style="" class=""/><g><path d="m512 462.87-43.53 49.13-192.72-187.89 46.41-46.41z" fill="#f2994a" data-original="#000000" style="" class=""/></g><path d="m300.78 256.65-68.7 68.4-195.05-195.4c-29.344-29.862-34.127-78.009-9.41-112 4.853-6.674 10.819-12.092 16.87-17.65z" fill="#f2994a" data-original="#000000" style="" class=""/></g></g></svg>
